<svg viewBox="0 0 171.15470053837925 191.5255888325765" xmlns="http://www.w3.org/2000/svg">
<defs>
<path d="M95.20235,95.11327 A1.5,1.5,0,0,1,95.20235,96.412315 L90.95235,103.77353 A1.5,1.5,0,0,1,89.82735,104.42305 L81.32735,104.42305 A1.5,1.5,0,0,1,80.20235,103.77353 L75.95235,96.412315 A1.5,1.5,0,0,1,75.95235,95.11327 L80.20235,87.75206 A1.5,1.5,0,0,1,81.32735,87.10254 L89.82735,87.10254 A1.5,1.5,0,0,1,90.95235,87.75206 z" fill="none" id="hexagon" stroke="black" stroke-width="1"/>
<path d="M85.57735,100.762794 L81.24722,93.262794 L89.90748,93.262794 z" fill="black" id="triangle" stroke="none"/>
<path d="M85.57735,100.61279 L81.37713,93.33779 L89.77757,93.33779 z" fill="white" id="triangle_hollow_interior" stroke="none"/>
<g id="board_cell">
<use href="#hexagon"/>
<use href="#triangle"/>
</g>
<rect fill="none" height="10" id="dice_outline" rx="1" stroke="black" stroke-width="1" width="10" x="80.57735026918962" y="90.76279441628824"/>
<circle cx="85.57735026918962" cy="95.76279441628824" fill="black" id="pip" r="1" stroke="none"/>
<use href="#pip" id="centre_pip"/>
<use href="#pip" id="top_left_pip" x="-2.5" y="-2.5"/>
<use href="#pip" id="top_right_pip" x="2.5" y="-2.5"/>
<use href="#pip" id="bottom_left_pip" x="-2.5" y="2.5"/>
<use href="#pip" id="bottom_right_pip" x="2.5" y="2.5"/>
<use href="#pip" id="centre_left_pip" x="-2.5"/>
<use href="#pip" id="centre_right_pip" x="2.5"/>
<g id="dice_with_pips_1">
<use href="#dice_outline"/>
<use href="#centre_pip"/>
</g>
<g id="dice_with_pips_2">
<use href="#dice_outline"/>
<use href="#top_left_pip"/>
<use href="#bottom_right_pip"/>
</g>
<g id="dice_with_pips_3">
<use href="#dice_outline"/>
<use href="#top_left_pip"/>
<use href="#centre_pip"/>
<use href="#bottom_right_pip"/>
</g>
<g id="dice_with_pips_4">
<use href="#dice_outline"/>
<use href="#top_left_pip"/>
<use href="#top_right_pip"/>
<use href="#bottom_left_pip"/>
<use href="#bottom_right_pip"/>
</g>
<g id="dice_with_pips_5">
<use href="#dice_outline"/>
<use href="#centre_pip"/>
<use href="#top_left_pip"/>
<use href="#top_right_pip"/>
<use href="#bottom_left_pip"/>
<use href="#bottom_right_pip"/>
</g>
<g id="dice_with_pips_6">
<use href="#dice_outline"/>
<use href="#top_left_pip"/>
<use href="#top_right_pip"/>
<use href="#bottom_left_pip"/>
<use href="#bottom_right_pip"/>
<use href="#centre_left_pip"/>
<use href="#centre_right_pip"/>
</g>
<g id="direction_hexagon_1">
<use href="#hexagon"/>
<use href="#dice_with_pips_1" transform="rotate(59.99999999999999,85.57735026918962,95.76279441628824)"/>
</g>
<g id="direction_hexagon_2">
<use href="#hexagon"/>
<use href="#dice_with_pips_2" transform="rotate(119.99999999999999,85.57735026918962,95.76279441628824)"/>
</g>
<g id="direction_hexagon_3">
<use href="#hexagon"/>
<use href="#dice_with_pips_3" transform="rotate(179.99999999999997,85.57735026918962,95.76279441628824)"/>
</g>
<g id="direction_hexagon_4">
<use href="#hexagon"/>
<use href="#dice_with_pips_4" transform="rotate(239.99999999999997,85.57735026918962,95.76279441628824)"/>
</g>
<g id="direction_hexagon_5">
<use href="#hexagon"/>
<use href="#dice_with_pips_5" transform="rotate(299.99999999999994,85.57735026918962,95.76279441628824)"/>
</g>
<g id="direction_hexagon_6">
<use href="#hexagon"/>
<use href="#dice_with_pips_6" transform="rotate(359.99999999999994,85.57735026918962,95.76279441628824)"/>
</g>
</defs>
<rect fill="none" height="191.5255888325765" width="171.15470053837925"/>
<use href="#direction_hexagon_1" x="74.99999999999996" y="-43.30127018922196"/>
<use href="#direction_hexagon_2" x="75.00000000000001" y="43.30127018922186"/>
<use href="#direction_hexagon_3" x="0.00000000000002651438096812267" y="86.60254037844385"/>
<use href="#direction_hexagon_4" x="-75" y="43.3012701892219"/>
<use href="#direction_hexagon_5" x="-75.00000000000003" y="-43.30127018922185"/>
<use href="#direction_hexagon_6" x="-0.00000000000019095714826605684" y="-86.60254037844385"/>
<use href="#board_cell"/>
<use href="#board_cell" x="15" y="8.660254037844384"/>
<use href="#board_cell" x="0.0000000000000010605752387249068" y="17.32050807568877"/>
<use href="#board_cell" x="-14.999999999999996" y="8.66025403784439"/>
<use href="#board_cell" x="-15.000000000000002" y="-8.66025403784438"/>
<use href="#board_cell" x="-0.00000000000000318172571617472" y="-17.32050807568877"/>
<use href="#board_cell" x="14.999999999999993" y="-8.660254037844393"/>
<use href="#board_cell" x="30" y="17.320508075688767"/>
<use href="#board_cell" x="15.000000000000004" y="25.98076211353316"/>
<use href="#board_cell" x="0.0000000000000021211504774498135" y="34.64101615137754"/>
<use href="#board_cell" x="-15" y="25.98076211353316"/>
<use href="#board_cell" x="-29.999999999999993" y="17.32050807568878"/>
<use href="#board_cell" x="-29.999999999999996" y="0.000000000000010658141036401503"/>
<use href="#board_cell" x="-30.000000000000004" y="-17.32050807568876"/>
<use href="#board_cell" x="-15.00000000000001" y="-25.980762113533153"/>
<use href="#board_cell" x="-0.00000000000000636345143234944" y="-34.64101615137754"/>
<use href="#board_cell" x="14.999999999999998" y="-25.980762113533167"/>
<use href="#board_cell" x="29.999999999999986" y="-17.320508075688785"/>
<use href="#board_cell" x="29.99999999999999" y="-0.000000000000014210854715202004"/>
<use href="#board_cell" x="45" y="25.980762113533153"/>
<use href="#board_cell" x="30.000000000000004" y="34.64101615137754"/>
<use href="#board_cell" x="15.000000000000007" y="43.30127018922194"/>
<use href="#board_cell" x="0.0000000000000031817257161747205" y="51.96152422706631"/>
<use href="#board_cell" x="-14.999999999999998" y="43.30127018922193"/>
<use href="#board_cell" x="-30" y="34.641016151377556"/>
<use href="#board_cell" x="-44.999999999999986" y="25.980762113533174"/>
<use href="#board_cell" x="-44.999999999999986" y="8.660254037844403"/>
<use href="#board_cell" x="-44.99999999999999" y="-8.660254037844368"/>
<use href="#board_cell" x="-45.00000000000001" y="-25.980762113533142"/>
<use href="#board_cell" x="-30.000000000000014" y="-34.641016151377535"/>
<use href="#board_cell" x="-15.000000000000021" y="-43.301270189221924"/>
<use href="#board_cell" x="-0.000000000000009545177148524161" y="-51.96152422706631"/>
<use href="#board_cell" x="14.999999999999996" y="-43.30127018922194"/>
<use href="#board_cell" x="30" y="-34.64101615137757"/>
<use href="#board_cell" x="44.99999999999998" y="-25.980762113533178"/>
<use href="#board_cell" x="44.999999999999986" y="-8.660254037844407"/>
<use href="#board_cell" x="44.999999999999986" y="8.660254037844364"/>
<use href="#board_cell" x="60" y="34.641016151377535"/>
<use href="#board_cell" x="45" y="43.301270189221924"/>
<use href="#board_cell" x="30.000000000000007" y="51.96152422706632"/>
<use href="#board_cell" x="15.000000000000014" y="60.62177826491071"/>
<use href="#board_cell" x="0.000000000000004242300954899627" y="69.28203230275508"/>
<use href="#board_cell" x="-14.999999999999998" y="60.6217782649107"/>
<use href="#board_cell" x="-30" y="51.96152422706632"/>
<use href="#board_cell" x="-45" y="43.30127018922194"/>
<use href="#board_cell" x="-59.999999999999986" y="34.64101615137756"/>
<use href="#board_cell" x="-59.999999999999986" y="17.320508075688792"/>
<use href="#board_cell" x="-59.99999999999999" y="0.000000000000021316282072803006"/>
<use href="#board_cell" x="-59.99999999999999" y="-17.32050807568875"/>
<use href="#board_cell" x="-60.00000000000001" y="-34.64101615137752"/>
<use href="#board_cell" x="-45.000000000000014" y="-43.30127018922191"/>
<use href="#board_cell" x="-30.00000000000002" y="-51.961524227066306"/>
<use href="#board_cell" x="-15.000000000000028" y="-60.6217782649107"/>
<use href="#board_cell" x="-0.00000000000001272690286469888" y="-69.28203230275508"/>
<use href="#board_cell" x="14.999999999999993" y="-60.62177826491071"/>
<use href="#board_cell" x="29.999999999999996" y="-51.961524227066334"/>
<use href="#board_cell" x="45" y="-43.30127018922197"/>
<use href="#board_cell" x="59.99999999999997" y="-34.64101615137757"/>
<use href="#board_cell" x="59.99999999999998" y="-17.3205080756888"/>
<use href="#board_cell" x="59.99999999999998" y="-0.00000000000002842170943040401"/>
<use href="#board_cell" x="59.999999999999986" y="17.320508075688743"/>
</svg>