<svg viewBox="0 0 51.15470053837925 52.96152422706631" xmlns="http://www.w3.org/2000/svg">
<defs>
<path d="M35.20235,25.831244 A1.5,1.5,0,0,1,35.20235,27.130281 L30.95235,34.491497 A1.5,1.5,0,0,1,29.82735,35.141018 L21.32735,35.141018 A1.5,1.5,0,0,1,20.20235,34.491497 L15.952351,27.130281 A1.5,1.5,0,0,1,15.952351,25.831244 L20.20235,18.470028 A1.5,1.5,0,0,1,21.32735,17.820509 L29.82735,17.820509 A1.5,1.5,0,0,1,30.95235,18.470028 z" fill="none" id="hexagon" stroke="black" stroke-width="1"/>
<path d="M25.57735,31.480762 L21.247223,23.980762 L29.907476,23.980762 z" fill="black" id="triangle" stroke="none"/>
<path d="M25.57735,31.330763 L21.377127,24.055761 L29.777573,24.055761 z" fill="white" id="triangle_hollow_interior" stroke="none"/>
<g id="board_cell">
<use href="#hexagon"/>
<use href="#triangle"/>
</g>
<rect fill="none" height="10" id="dice_outline" rx="1" stroke="black" stroke-width="1" width="10" x="20.577350269189626" y="21.480762113533157"/>
<circle cx="25.577350269189626" cy="26.480762113533157" fill="black" id="pip" r="1" stroke="none"/>
<use href="#pip" id="centre_pip"/>
<use href="#pip" id="top_left_pip" x="-2.5" y="-2.5"/>
<use href="#pip" id="top_right_pip" x="2.5" y="-2.5"/>
<use href="#pip" id="bottom_left_pip" x="-2.5" y="2.5"/>
<use href="#pip" id="bottom_right_pip" x="2.5" y="2.5"/>
<use href="#pip" id="centre_left_pip" x="-2.5"/>
<use href="#pip" id="centre_right_pip" x="2.5"/>
<g id="dice_with_pips_1">
<use href="#dice_outline"/>
<use href="#centre_pip"/>
</g>
<g id="dice_with_pips_2">
<use href="#dice_outline"/>
<use href="#top_left_pip"/>
<use href="#bottom_right_pip"/>
</g>
<g id="dice_with_pips_3">
<use href="#dice_outline"/>
<use href="#top_left_pip"/>
<use href="#centre_pip"/>
<use href="#bottom_right_pip"/>
</g>
<g id="dice_with_pips_4">
<use href="#dice_outline"/>
<use href="#top_left_pip"/>
<use href="#top_right_pip"/>
<use href="#bottom_left_pip"/>
<use href="#bottom_right_pip"/>
</g>
<g id="dice_with_pips_5">
<use href="#dice_outline"/>
<use href="#centre_pip"/>
<use href="#top_left_pip"/>
<use href="#top_right_pip"/>
<use href="#bottom_left_pip"/>
<use href="#bottom_right_pip"/>
</g>
<g id="dice_with_pips_6">
<use href="#dice_outline"/>
<use href="#top_left_pip"/>
<use href="#top_right_pip"/>
<use href="#bottom_left_pip"/>
<use href="#bottom_right_pip"/>
<use href="#centre_left_pip"/>
<use href="#centre_right_pip"/>
</g>
<g id="direction_hexagon_1">
<use href="#hexagon"/>
<use href="#dice_with_pips_1" transform="rotate(59.99999999999999,25.577350269189626,26.480762113533157)"/>
</g>
<g id="direction_hexagon_2">
<use href="#hexagon"/>
<use href="#dice_with_pips_2" transform="rotate(119.99999999999999,25.577350269189626,26.480762113533157)"/>
</g>
<g id="direction_hexagon_3">
<use href="#hexagon"/>
<use href="#dice_with_pips_3" transform="rotate(179.99999999999997,25.577350269189626,26.480762113533157)"/>
</g>
<g id="direction_hexagon_4">
<use href="#hexagon"/>
<use href="#dice_with_pips_4" transform="rotate(239.99999999999997,25.577350269189626,26.480762113533157)"/>
</g>
<g id="direction_hexagon_5">
<use href="#hexagon"/>
<use href="#dice_with_pips_5" transform="rotate(299.99999999999994,25.577350269189626,26.480762113533157)"/>
</g>
<g id="direction_hexagon_6">
<use href="#hexagon"/>
<use href="#dice_with_pips_6" transform="rotate(359.99999999999994,25.577350269189626,26.480762113533157)"/>
</g>
</defs>
<rect fill="none" height="52.96152422706631" width="51.15470053837925"/>
<use href="#direction_hexagon_1" x="14.999999999999993" y="-8.660254037844393"/>
<use href="#direction_hexagon_2" x="15.000000000000005" y="8.660254037844373"/>
<use href="#direction_hexagon_3" x="0.000000000000005302876193624534" y="17.32050807568877"/>
<use href="#direction_hexagon_4" x="-15.000000000000002" y="8.660254037844382"/>
<use href="#direction_hexagon_5" x="-15.000000000000007" y="-8.660254037844371"/>
<use href="#direction_hexagon_6" x="-0.00000000000003819142965321137" y="-17.32050807568877"/>
<use href="#board_cell"/>
</svg>